<svg xmlns="http://www.w3.org/2000/svg" width="88" height="88" viewBox="0 0 88 88">
  <g id="Сгруппировать_2021" data-name="Сгруппировать 2021" transform="translate(-2772 -8534)">
    <circle id="Эллипс_13" data-name="Эллипс 13" cx="44" cy="44" r="44" transform="translate(2772 8534)" fill="#dbd6cc"/>
    <g id="noun-up-180652" transform="translate(2588.967 8431.781)">
      <path id="Контур_1193" data-name="Контур 1193" d="M226.818,124v8.644a5.863,5.863,0,0,0-7.436,2.391,5.873,5.873,0,0,0-8.909,3.526,5.836,5.836,0,0,0-2.551-.589,5.9,5.9,0,0,0-5.889,5.888v9.177a21.275,21.275,0,0,0,36.315,15.051l13.364-14.335a5.885,5.885,0,0,0-.043-8.283,6.44,6.44,0,0,0-7.935-.869c-.029.016-.058.033-.085.051l-5.053,3.177v-23.8c0-.007,0-.013,0-.02a5.889,5.889,0,0,0-11.778,0Zm-18.9,17.487a2.375,2.375,0,0,1,2.372,2.372v3.646a2.373,2.373,0,0,1-4.747,0v-3.645a2.377,2.377,0,0,1,2.375-2.373Zm8.261-3.889a2.376,2.376,0,0,1,2.372,2.374v6.561a2.373,2.373,0,1,1-4.747,0v-6.561A2.376,2.376,0,0,1,216.181,137.6Zm10.636.43v7.532a2.373,2.373,0,1,1-4.747,0v-7.532a2.373,2.373,0,1,1,4.747,0Zm5.888-16.4A2.376,2.376,0,0,1,235.079,124s0,.006,0,.009V150.04l-7.438,4.676a1.758,1.758,0,0,0,1.87,2.976l15.962-10.033a3.041,3.041,0,0,1,3.711.3,2.38,2.38,0,0,1,0,3.358l-13.321,14.288a17.761,17.761,0,0,1-30.316-12.565v-.148a5.858,5.858,0,0,0,6.992-1.741,5.861,5.861,0,0,0,8.262-.972,5.878,5.878,0,0,0,9.532-4.617V124.008a2.378,2.378,0,0,1,2.375-2.376Z"/>
    </g>
    <g id="Эллипс_14" data-name="Эллипс 14" transform="translate(2777 8539)" fill="none" stroke="#000" stroke-width="2">
      <circle cx="39" cy="39" r="39" stroke="none"/>
      <circle cx="39" cy="39" r="38" fill="none"/>
    </g>
  </g>
</svg>
