<svg xmlns="http://www.w3.org/2000/svg" width="40.58" height="26.98" viewBox="0 0 40.58 26.98">
  <path id="icon-meil" d="M76.624,120.516c-.055,0-.11,0-.163-.008L89,107.843l3.485,2.251a1.079,1.079,0,0,0,1.173,0l3.483-2.251,12.54,12.665c-.053,0-.109.008-.164.008Zm.9-22.659L93.071,107.9l15.544-10.043Zm-2.576,21.106,12.2-12.318L75.09,98.856a1.663,1.663,0,0,0-.146.683v19.294c0,.043,0,.087.006.129ZM99,106.645l12.195,12.318c0-.043.007-.086.007-.129V99.539a1.69,1.69,0,0,0-.145-.683ZM109.518,95.7H76.623a3.847,3.847,0,0,0-3.842,3.843v19.294a3.847,3.847,0,0,0,3.842,3.843h32.894a3.847,3.847,0,0,0,3.844-3.843V99.539a3.847,3.847,0,0,0-3.844-3.843Z" transform="translate(-72.781 -95.696)" fill="#dbd6cc" fill-rule="evenodd"/>
</svg>
