<svg xmlns="http://www.w3.org/2000/svg" width="26.027" height="44.152" viewBox="0 0 26.027 44.152">
  <path id="icon-phone" d="M212.823,14H199.6a6.4,6.4,0,0,0-6.4,6.4V51.752a6.4,6.4,0,0,0,6.4,6.4h13.228a6.4,6.4,0,0,0,6.4-6.4V20.4a6.4,6.4,0,0,0-6.4-6.4ZM216.9,51.753a4.085,4.085,0,0,1-4.076,4.076H199.6a4.085,4.085,0,0,1-4.076-4.076V20.4a4.085,4.085,0,0,1,4.076-4.076h.335a2.077,2.077,0,0,0,1.859,3.021h8.831a2.077,2.077,0,0,0,1.859-3.021h.335A4.085,4.085,0,0,1,216.9,20.4Z" transform="translate(-193.196 -14)" fill="#dbd6cc"/>
</svg>
