<svg xmlns="http://www.w3.org/2000/svg" width="26.891" height="43.444" viewBox="0 0 26.891 43.444">
  <path id="icon-pos" d="M217.846,44.773c-7.309,0-13.446,5.537-13.446,13.963a20.247,20.247,0,0,0,2.053,8.759l10,19.861a1.552,1.552,0,0,0,2.78,0l10-19.861a20.247,20.247,0,0,0,2.053-8.759c0-8.426-6.137-13.963-13.446-13.963Zm0,3.1c5.829,0,10.343,3.863,10.343,10.86a17.752,17.752,0,0,1-1.713,7.353L217.846,83.2l-8.63-17.114a17.752,17.752,0,0,1-1.713-7.353C207.5,51.739,212.017,47.876,217.846,47.876Zm0,3.62a6.723,6.723,0,1,0,6.723,6.723A6.747,6.747,0,0,0,217.846,51.5Zm0,3.1a3.62,3.62,0,1,1-3.62,3.62A3.6,3.6,0,0,1,217.846,54.6Z" transform="translate(-204.4 -44.773)" fill="#dbd6cc"/>
</svg>
